HIERARCHY
ROOT Hips
{
	OFFSET 0.000000 0.000000 0.000000
	CHANNELS 6 Xposition Yposition Zposition Xrotation Yrotation Zrotation
	JOINT Chest
	{
		OFFSET 0.000000 0.009282 11.569106
		CHANNELS 6 Xposition Yposition Zposition Xrotation Yrotation Zrotation
		JOINT Chest2
		{
			OFFSET 0.000000 -0.016863 9.269641
			CHANNELS 6 Xposition Yposition Zposition Xrotation Yrotation Zrotation
			JOINT Chest3
			{
				OFFSET 0.000000 0.000000 8.374491
				CHANNELS 6 Xposition Yposition Zposition Xrotation Yrotation Zrotation
				JOINT Chest4
				{
					OFFSET 0.000000 0.000000 8.374493
					CHANNELS 6 Xposition Yposition Zposition Xrotation Yrotation Zrotation
					JOINT Neck
					{
						OFFSET 0.000000 -0.000001 12.152554
						CHANNELS 6 Xposition Yposition Zposition Xrotation Yrotation Zrotation
						JOINT Head
						{
							OFFSET 0.000000 -0.040100 7.802319
							CHANNELS 6 Xposition Yposition Zposition Xrotation Yrotation Zrotation
							End Site
							{
								OFFSET 0.000000 -0.020946 14.853096
							}
						}
					}
					JOINT RightCollar
					{
						OFFSET -2.894404 0.000000 6.791374
						CHANNELS 6 Xposition Yposition Zposition Xrotation Yrotation Zrotation
						JOINT RightShoulder
						{
							OFFSET -13.574684 0.000000 0.000000
							CHANNELS 6 Xposition Yposition Zposition Xrotation Yrotation Zrotation
							JOINT RightElbow
							{
								OFFSET -23.923903 0.000000 0.000000
								CHANNELS 6 Xposition Yposition Zposition Xrotation Yrotation Zrotation
								JOINT RightWrist
								{
									OFFSET -19.846718 -0.012765 0.000000
									CHANNELS 6 Xposition Yposition Zposition Xrotation Yrotation Zrotation
									End Site
									{
										OFFSET -14.973145 0.000000 0.000000
									}
								}
							}
						}
					}
					JOINT LeftCollar
					{
						OFFSET 2.894404 0.000000 6.791374
						CHANNELS 6 Xposition Yposition Zposition Xrotation Yrotation Zrotation
						JOINT LeftShoulder
						{
							OFFSET 13.574684 0.000000 0.000000
							CHANNELS 6 Xposition Yposition Zposition Xrotation Yrotation Zrotation
							JOINT LeftElbow
							{
								OFFSET 23.923903 0.000000 0.000000
								CHANNELS 6 Xposition Yposition Zposition Xrotation Yrotation Zrotation
								JOINT LeftWrist
								{
									OFFSET 19.846718 -0.012765 0.000000
									CHANNELS 6 Xposition Yposition Zposition Xrotation Yrotation Zrotation
									End Site
									{
										OFFSET 14.973145 0.000000 0.000000
									}
								}
							}
						}
					}
				}
			}
		}
	}
	JOINT RightHip
	{
		OFFSET -9.469263 -0.004642 0.045487
		CHANNELS 6 Xposition Yposition Zposition Xrotation Yrotation Zrotation
		JOINT RightKnee
		{
			OFFSET 0.000000 -0.002666 -40.478676
			CHANNELS 6 Xposition Yposition Zposition Xrotation Yrotation Zrotation
			JOINT RightAnkle
			{
				OFFSET 0.000000 -0.049110 -35.224068
				CHANNELS 6 Xposition Yposition Zposition Xrotation Yrotation Zrotation
				JOINT RightToe
				{
					OFFSET 0.000000 -12.539530 -6.151390
					CHANNELS 6 Xposition Yposition Zposition Xrotation Yrotation Zrotation
					End Site
					{
						OFFSET 0.000000 -5.044995 -1.291870
					}
				}
			}
		}
	}
	JOINT LeftHip
	{
		OFFSET 9.469263 -0.004642 0.045487
		CHANNELS 6 Xposition Yposition Zposition Xrotation Yrotation Zrotation
		JOINT LeftKnee
		{
			OFFSET 0.000000 -0.002666 -40.478676
			CHANNELS 6 Xposition Yposition Zposition Xrotation Yrotation Zrotation
			JOINT LeftAnkle
			{
				OFFSET 0.000000 -0.049110 -35.224068
				CHANNELS 6 Xposition Yposition Zposition Xrotation Yrotation Zrotation
				JOINT LeftToe
				{
					OFFSET 0.000000 -12.539530 -6.151390
					CHANNELS 6 Xposition Yposition Zposition Xrotation Yrotation Zrotation
					End Site
					{
						OFFSET 0.000000 -5.044995 -1.291870
					}
				}
			}
		}
	}
}
MOTION
Frames: 8
Frame Time: 0.016667
12.714429 22.838261 8.615119 26.504874 36.372636 -126.367597 -0.000004 0.009283 11.569107 17.563604 -0.953576 -1.021442 -0.000002 -0.016864 9.269639 7.806425 -0.374319 -0.516832 0.000000 0.000001 8.374493 7.806429 -0.374318 -0.516833 0.000002 0.000001 8.374494 5.855119 -0.274189 -0.392481 -0.000003 -0.000003 12.152553 23.291222 -3.907967 -2.266212 -0.000002 -0.040099 7.802317 6.940419 -6.565710 -5.183378 -2.894405 -0.000001 6.791370 -7.737572 -4.473585 -4.593061 -13.574680 -0.000002 0.000004 33.979498 -32.514392 22.799055 -23.923901 -0.000004 0.000001 60.275764 13.193287 57.701076 -19.846716 -0.012764 0.000002 -54.121657 31.031250 92.629564 2.894401 0.000000 6.791370 -7.502579 10.814524 -3.751529 13.574687 -0.000002 0.000003 23.220690 38.001984 -11.638740 23.923903 -0.000001 0.000001 61.470733 5.988230 -56.384598 19.846716 -0.012768 -0.000000 -32.557866 -33.885040 -92.666467 -9.469268 -0.004643 0.045487 -52.807874 4.466109 -10.358660 0.000736 -0.002792 -40.478336 8.591914 3.502110 -15.993125 -0.000340 -0.049727 -35.222389 40.521159 -9.847676 7.520409 0.000015 -12.539534 -6.151389 -0.188188 -0.492992 -0.217250 9.469260 -0.004642 0.045487 -56.475849 10.844323 14.655187 -0.001552 -0.003265 -40.478016 11.386759 8.363947 35.984285 -0.000393 -0.050246 -35.221924 53.215476 6.651628 8.543211 -0.000008 -12.539532 -6.151381 0.115429 0.034525 0.123456 
12.716719 22.843271 8.604194 26.381850 36.342371 -126.222005 0.000001 0.009281 11.569103 17.490205 -0.831749 -1.027085 0.000000 -0.016864 9.269637 7.803209 -0.337888 -0.500302 0.000000 -0.000001 8.374495 7.803208 -0.337886 -0.500303 -0.000001 -0.000001 8.374497 5.852672 -0.247074 -0.379619 -0.000002 -0.000003 12.152558 23.252532 -3.798798 -2.273386 0.000000 -0.040098 7.802311 6.873960 -6.362629 -5.169205 -2.894406 0.000001 6.791374 -7.422046 -4.402819 -4.600287 -13.574684 -0.000001 0.000004 33.930792 -32.594407 23.158132 -23.923901 0.000001 0.000000 60.390695 13.125495 57.517201 -19.846724 -0.012773 -0.000000 -54.288939 31.105662 92.814375 2.894403 -0.000001 6.791377 -7.490275 10.792032 -3.857484 13.574683 -0.000000 -0.000000 23.511704 37.698539 -11.894677 23.923899 -0.000002 -0.000001 61.539294 6.085978 -56.535409 19.846710 -0.012770 0.000002 -32.860935 -33.921110 -92.869549 -9.469261 -0.004643 0.045487 -52.888129 4.617781 -10.275892 0.000735 -0.002792 -40.478336 8.564838 3.478351 -16.098107 -0.000357 -0.049736 -35.222389 40.662380 -9.787377 7.698214 0.000008 -12.539534 -6.151387 -0.133247 -0.424753 -0.186190 9.469264 -0.004643 0.045486 -56.507521 10.936879 14.604889 -0.001564 -0.003270 -40.478035 11.310480 8.296853 36.211672 -0.000389 -0.050243 -35.221931 53.258776 6.669964 8.417071 -0.000007 -12.539530 -6.151374 0.096656 -0.042537 0.079143 
12.732101 22.818350 8.603908 26.366391 36.376252 -126.166380 0.000001 0.009280 11.569105 17.496016 -0.763724 -1.032552 -0.000000 -0.016864 9.269642 7.800894 -0.306511 -0.493635 -0.000001 -0.000001 8.374492 7.800896 -0.306511 -0.493641 0.000001 -0.000001 8.374490 5.850913 -0.223625 -0.374213 0.000001 -0.000007 12.152561 23.227668 -3.668694 -2.281633 0.000000 -0.040096 7.802314 6.834171 -6.121395 -5.150579 -2.894403 -0.000005 6.791379 -7.072794 -4.285384 -4.591499 -13.574684 0.000001 0.000001 33.897874 -32.743145 23.480230 -23.923903 -0.000002 0.000007 60.505886 13.125678 57.335005 -19.846708 -0.012762 -0.000002 -54.505405 31.175910 93.025694 2.894404 -0.000002 6.791372 -7.426738 10.791956 -3.907750 13.574681 -0.000000 0.000006 23.689441 37.471254 -12.092847 23.923899 -0.000000 -0.000004 61.651897 6.095800 -56.641697 19.846712 -0.012771 0.000002 -33.168362 -33.917049 -93.060528 -9.469264 -0.004644 0.045485 -52.861597 4.734673 -10.303786 0.000740 -0.002793 -40.478336 8.512293 3.498511 -16.167930 -0.000364 -0.049748 -35.222378 40.830533 -9.710831 7.827591 -0.000007 -12.539534 -6.151386 -0.111093 -0.341698 -0.139016 9.469262 -0.004643 0.045487 -56.408029 11.003957 14.629297 -0.001571 -0.003273 -40.478031 11.157232 8.145051 36.429582 -0.000375 -0.050252 -35.221905 53.514997 6.732994 8.206703 0.000000 -12.539529 -6.151381 0.009521 -0.129081 -0.006083 
12.729859 22.827440 8.601293 26.326438 36.401080 -126.115181 0.000000 0.009282 11.569105 17.496392 -0.687553 -1.026291 -0.000001 -0.016860 9.269639 7.809217 -0.276498 -0.480709 -0.000000 -0.000000 8.374489 7.809217 -0.276498 -0.480707 -0.000000 0.000002 8.374490 5.857124 -0.201270 -0.364133 0.000002 -0.000002 12.152556 23.183211 -3.543076 -2.298003 -0.000000 -0.040106 7.802326 6.757504 -5.885565 -5.148965 -2.894401 0.000001 6.791373 -6.594297 -4.199514 -4.564191 -13.574683 0.000001 -0.000007 33.715798 -32.930248 23.732927 -23.923903 -0.000001 -0.000003 60.579475 13.133584 57.169097 -19.846718 -0.012761 -0.000003 -54.785101 31.247490 93.281779 2.894407 0.000001 6.791376 -7.365780 10.740169 -3.932159 13.574684 -0.000002 -0.000003 23.760872 37.309884 -12.269357 23.923904 -0.000003 -0.000008 61.824058 6.095076 -56.737565 19.846724 -0.012770 0.000002 -33.421922 -33.919071 -93.235866 -9.469263 -0.004642 0.045486 -52.844152 4.834894 -10.391849 0.000749 -0.002794 -40.478340 8.433173 3.553680 -16.197876 -0.000363 -0.049744 -35.222378 40.957964 -9.687608 7.831312 -0.000007 -12.539536 -6.151384 -0.078828 -0.194259 -0.074152 9.469264 -0.004643 0.045486 -56.274595 11.106359 14.727546 -0.001578 -0.003273 -40.478054 10.864996 7.899078 36.609848 -0.000362 -0.050256 -35.221905 53.931734 6.736772 7.873664 0.000006 -12.539531 -6.151386 -0.049122 -0.141925 -0.062863 
12.735109 22.811651 8.615105 26.369103 36.461380 -126.137461 -0.000000 0.009281 11.569104 17.572810 -0.642241 -0.994248 -0.000001 -0.016863 9.269639 7.821511 -0.252566 -0.462689 0.000001 -0.000000 8.374495 7.821517 -0.252564 -0.462697 0.000000 0.000002 8.374492 5.866322 -0.183537 -0.350324 -0.000003 -0.000003 12.152560 23.124820 -3.416813 -2.324455 -0.000000 -0.040102 7.802320 6.654763 -5.645390 -5.166147 -2.894405 0.000001 6.791379 -5.986862 -4.124709 -4.530692 -13.574679 0.000001 -0.000002 33.448232 -33.115213 23.985498 -23.923903 0.000002 0.000005 60.571511 13.115853 57.019143 -19.846722 -0.012769 0.000005 -55.123496 31.303314 93.578653 2.894403 0.000000 6.791373 -7.239195 10.669406 -3.995718 13.574686 -0.000001 0.000004 23.665885 37.157663 -12.365767 23.923899 -0.000004 -0.000001 62.020645 6.144111 -56.861110 19.846710 -0.012771 0.000003 -33.603984 -33.928125 -93.371486 -9.469262 -0.004641 0.045486 -52.741990 4.906965 -10.529364 0.000743 -0.002794 -40.478352 8.334113 3.602661 -16.235850 -0.000363 -0.049756 -35.222378 41.142703 -9.732011 7.841248 -0.000005 -12.539533 -6.151387 -0.093789 -0.011720 0.022718 9.469263 -0.004642 0.045486 -55.989902 11.257385 14.812802 -0.001582 -0.003274 -40.478077 10.440614 7.569468 36.771758 -0.000343 -0.050268 -35.221893 54.317004 6.672934 7.469494 0.000007 -12.539537 -6.151386 -0.021119 -0.108342 -0.043818 
12.735512 22.824017 8.618640 26.350796 36.464317 -126.142174 -0.000000 0.009283 11.569103 17.567257 -0.603157 -0.956835 0.000001 -0.016861 9.269642 7.830540 -0.235358 -0.446496 -0.000002 0.000002 8.374492 7.830541 -0.235360 -0.446496 -0.000002 0.000000 8.374491 5.873077 -0.170832 -0.337949 0.000001 -0.000002 12.152555 23.067910 -3.280730 -2.355939 0.000002 -0.040101 7.802313 6.555213 -5.385923 -5.189675 -2.894403 0.000000 6.791371 -5.408313 -4.055132 -4.501866 -13.574680 0.000000 -0.000000 33.268263 -33.284728 24.253974 -23.923897 0.000001 -0.000004 60.494473 13.110148 56.856277 -19.846716 -0.012772 0.000001 -55.480988 31.340402 93.887282 2.894405 -0.000000 6.791371 -7.089323 10.616895 -4.068327 13.574683 0.000000 0.000000 23.565012 36.997550 -12.440248 23.923903 -0.000005 0.000002 62.181947 6.200734 -56.990883 19.846710 -0.012770 0.000003 -33.749553 -33.949414 -93.457233 -9.469263 -0.004643 0.045486 -52.741013 4.969222 -10.618486 0.000755 -0.002795 -40.478352 8.251501 3.627620 -16.340621 -0.000360 -0.049759 -35.222366 41.307953 -9.775233 7.821647 -0.000008 -12.539528 -6.151378 -0.100650 0.154673 0.127960 9.469262 -0.004643 0.045485 -55.803352 11.402928 14.833494 -0.001596 -0.003273 -40.478096 10.073653 7.269965 36.979911 -0.000327 -0.050279 -35.221889 54.492386 6.604094 7.151868 0.000000 -12.539525 -6.151373 0.070901 -0.084912 0.010943 
12.738299 22.815470 8.627668 26.380672 36.515421 -126.172814 -0.000001 0.009282 11.569106 17.605455 -0.581592 -0.932647 0.000001 -0.016863 9.269646 7.831200 -0.222361 -0.435986 0.000001 0.000000 8.374494 7.831202 -0.222365 -0.435983 -0.000002 0.000001 8.374495 5.873558 -0.161217 -0.329900 0.000002 -0.000004 12.152560 23.033225 -3.134500 -2.385085 -0.000002 -0.040102 7.802319 6.497521 -5.109247 -5.205056 -2.894402 -0.000001 6.791379 -5.009304 -4.014491 -4.470083 -13.574685 0.000001 -0.000003 33.247725 -33.424244 24.460224 -23.923899 0.000001 0.000000 60.409437 13.152799 56.698623 -19.846708 -0.012765 0.000004 -55.801614 31.364669 94.149739 2.894405 -0.000000 6.791382 -6.971989 10.583282 -4.117850 13.574686 -0.000002 0.000001 23.594349 36.839134 -12.556012 23.923901 0.000002 -0.000001 62.264073 6.248562 -57.088333 19.846714 -0.012769 -0.000001 -33.886143 -33.949510 -93.522222 -9.469264 -0.004641 0.045487 -52.689678 5.013484 -10.628421 0.000754 -0.002795 -40.478355 8.204343 3.649422 -16.533861 -0.000350 -0.049759 -35.222359 41.397107 -9.718068 7.730007 -0.000006 -12.539536 -6.151371 -0.116200 0.244930 0.167333 9.469260 -0.004642 0.045488 -55.586299 11.520582 14.724920 -0.001604 -0.003281 -40.478119 9.765281 7.043984 37.317285 -0.000323 -0.050275 -35.221886 54.488490 6.565253 6.983045 -0.000006 -12.539539 -6.151369 0.158454 -0.111744 0.068669 
12.734603 22.832054 8.629756 26.377646 36.546986 -126.181830 -0.000000 0.009283 11.569109 17.573477 -0.569991 -0.928606 0.000001 -0.016859 9.269640 7.817570 -0.213747 -0.434899 -0.000000 -0.000001 8.374492 7.817573 -0.213748 -0.434900 -0.000000 0.000001 8.374496 5.863333 -0.154778 -0.328974 0.000002 -0.000000 12.152550 23.037888 -2.970017 -2.406468 0.000001 -0.040101 7.802313 6.513971 -4.802611 -5.199664 -2.894401 0.000002 6.791371 -4.755760 -3.973815 -4.452596 -13.574683 0.000001 0.000003 33.332214 -33.538199 24.600957 -23.923893 0.000003 -0.000000 60.374952 13.239568 56.564355 -19.846716 -0.012767 0.000000 -56.053030 31.383503 94.347664 2.894408 -0.000001 6.791370 -6.866317 10.566035 -4.117741 13.574684 -0.000001 0.000005 23.723841 36.713776 -12.705334 23.923904 -0.000002 -0.000005 62.309125 6.308236 -57.145017 19.846714 -0.012768 0.000002 -34.001734 -33.953693 -93.608091 -9.469264 -0.004642 0.045488 -52.692990 5.057552 -10.549675 0.000770 -0.002798 -40.478363 8.208416 3.617144 -16.783242 -0.000347 -0.049757 -35.222359 41.457121 -9.743188 7.646368 -0.000005 -12.539523 -6.151385 -0.125465 0.356539 0.226118 9.469265 -0.004642 0.045488 -55.434420 11.564867 14.545603 -0.001625 -0.003289 -40.478134 9.531166 6.940524 37.776062 -0.000317 -0.050271 -35.221893 54.340637 6.496907 6.904079 -0.000008 -12.539534 -6.151374 0.241313 -0.150206 0.118036 
